<?xml version="1.0" encoding="UTF-8" standalone="no"?>
<svg
   xmlns:dc="http://purl.org/dc/elements/1.1/"
   xmlns:cc="http://creativecommons.org/ns#"
   xmlns:rdf="http://www.w3.org/1999/02/22-rdf-syntax-ns#"
   xmlns:svg="http://www.w3.org/2000/svg"
   xmlns="http://www.w3.org/2000/svg"
   xmlns:sodipodi="http://sodipodi.sourceforge.net/DTD/sodipodi-0.dtd"
   xmlns:inkscape="http://www.inkscape.org/namespaces/inkscape"
   version="1.0"
   width="1280.000000pt"
   height="1280.000000pt"
   viewBox="0 0 1280.000000 1280.000000"
   preserveAspectRatio="xMidYMid meet"
   id="svg6"
   sodipodi:docname="home.svg"
   inkscape:version="0.92.3 (2405546, 2018-03-11)">
  <metadata
     id="metadata12">
    <rdf:RDF>
      <cc:Work
         rdf:about="">
        <dc:format>image/svg+xml</dc:format>
        <dc:type
           rdf:resource="http://purl.org/dc/dcmitype/StillImage" />
      </cc:Work>
    </rdf:RDF>
  </metadata>
  <defs
     id="defs10" />
  <sodipodi:namedview
     pagecolor="#ffffff"
     bordercolor="#666666"
     borderopacity="1"
     objecttolerance="10"
     gridtolerance="10"
     guidetolerance="10"
     inkscape:pageopacity="0"
     inkscape:pageshadow="2"
     inkscape:window-width="1200"
     inkscape:window-height="1855"
     id="namedview8"
     showgrid="false"
     inkscape:zoom="0.13828125"
     inkscape:cx="853.33333"
     inkscape:cy="853.33333"
     inkscape:window-x="0"
     inkscape:window-y="0"
     inkscape:window-maximized="1"
     inkscape:current-layer="svg6" />
  <g
     transform="translate(0.000000,1280.000000) scale(0.100000,-0.100000)"
     fill="#000000"
     stroke="none"
     id="g4"
     style="fill:#f9f9f9">
    <path
       d="M6319 9167 c-20 -8 -52 -23 -70 -35 -19 -12 -581 -569 -1250 -1239 -1340 -1341 -1254 -1247 -1254 -1376 0 -100 -11 -97 371 -97 l324 0 2 -1292 c3 -1203 4 -1296 20 -1331 28 -62 73 -111 130 -143 l53 -29 490 -3 c537 -3 548 -2 613 54 79 67 76 45 82 629 l5 520 23 45 c33 63 76 105 136 132 50 23 56 23 406 23 349 0 356 0 405 -23 63 -29 100 -64 133 -127 l27 -50 5 -520 c6 -584 3 -562 82 -629 65 -56 76 -57 613 -54 487 3 490 3 532 26 57 30 105 80 134 138 l24 49 3 1293 2 1292 324 0 c383 0 371 -3 371 97 -1 130 86 34 -1258 1380 -884 885 -1234 1229 -1270 1249 -59 32 -153 41 -208 21z"
       id="path2"
       style="fill:#f9f9f9" />
  </g>
</svg>
