<?xml version="1.0" encoding="utf-8"?>
<!-- Generator: Adobe Illustrator 22.1.0, SVG Export Plug-In . SVG Version: 6.00 Build 0)  -->
<svg version="1.1" id="Ebene_1" xmlns="http://www.w3.org/2000/svg" xmlns:xlink="http://www.w3.org/1999/xlink" x="0px" y="0px"
	 viewBox="0 0 428 207.7" style="enable-background:new 0 0 428 207.7;" xml:space="preserve">
<style type="text/css">
	.st0{fill:#009DD1;}
	.st1{fill:#AF0078;}
	.st2{fill:#888888;}
</style>
<g>
	<path class="st0" d="M186.3,43.3l0,0.3c0,0.5-2,48.7-35.1,73.1c-13.7,10-28,13.7-39.3,10.1c-6.2-2-10.9-6.1-12.5-10.9
		c-1.7-5.1,1.1-8.8,2.3-9.8c1-0.8,2.4-1.3,2.5-1.4l0.3-0.1l-0.6-1.8l-0.3,0.1c0,0-1.7,0.6-3.1,1.7c-2.2,1.8-4.7,6.4-2.9,11.9
		c1.8,5.4,6.9,10,13.8,12.2c3,1,6.2,1.4,9.6,1.4c10,0,20.9-4.1,31.4-11.8c33.8-24.9,35.9-74.1,35.9-74.6l0-0.3L186.3,43.3z"/>
	<path class="st0" d="M121,1.7l-0.2-0.2l-1.4,1.3l0.2,0.2c0.3,0.4,33.1,35.9,26.8,76.5c-2.6,16.8-10.1,29.5-20.6,34.9
		c-5.8,3-12,3.4-16.6,1.1c-4.8-2.4-5.5-7-5.3-8.5c0.1-1.4,0.8-2.8,0.8-2.8l0.1-0.3l-1.7-0.8l-0.1,0.3c0,0.1-0.8,1.7-1,3.4
		c-0.3,2.8,1.2,7.9,6.4,10.5c2.2,1.1,4.7,1.7,7.5,1.7c3.6,0,7.3-1,10.9-2.8c11.1-5.7,19-19,21.7-36.4C154.7,38.3,121.3,2,121,1.7z"
		/>
	<path class="st0" d="M118.3,55.3C93.5,21.6,44.2,19.4,43.7,19.4l-0.3,0l-0.1,1.9l0.3,0c0.5,0,48.8,2.1,73.1,35.1
		c10,13.7,13.7,28,10.1,39.3c-2,6.2-6.1,10.9-10.9,12.5c-5.1,1.7-8.8-1.1-9.8-2.3c-0.9-1.1-1.4-2.5-1.4-2.5l-0.1-0.3l-1.8,0.6
		l0.1,0.3c0.1,0.2,0.6,1.8,1.7,3.1c1.4,1.8,4.5,3.5,8.1,3.5c1.3,0,2.5-0.2,3.8-0.6c5.4-1.8,10-6.9,12.2-13.8
		C132.5,84.5,128.7,69.5,118.3,55.3z"/>
	<path class="st0" d="M110.1,91.1c-1.8-5.4-6.9-10-13.8-12.2c-11.9-3.8-26.9,0-41,10.4c-33.8,24.9-35.9,74.1-35.9,74.6l0,0.3
		l1.9,0.1l0-0.3c0-0.5,1.9-48.7,35.1-73.1c13.7-10,28-13.7,39.3-10.1c6.2,2,10.9,6.1,12.5,10.9c1.7,5.1-1.1,8.8-2.3,9.8
		c-1.1,0.9-2.5,1.4-2.5,1.4l-0.3,0.1l0.6,1.8l0.3-0.1c0.2-0.1,1.8-0.6,3.1-1.7C109.4,101.2,112,96.6,110.1,91.1z"/>
	<path class="st0" d="M99.3,90.3c-5.1-2.6-12-2.2-18.3,1.1c-11.1,5.7-19,19-21.7,36.4c-6.3,41.5,27,77.8,27.3,78.1l0.2,0.2l1.4-1.3
		l-0.2-0.2c-0.3-0.4-33.1-35.9-26.8-76.5c2.6-16.8,10.1-29.5,20.6-34.9c5.8-3,12-3.4,16.6-1.1c4.8,2.4,5.5,7,5.3,8.5
		c-0.1,1.4-0.8,2.8-0.8,2.8l-0.2,0.3l1.8,0.9l0.1-0.3c0.1-0.2,0.8-1.7,1-3.4C106,98,104.5,93,99.3,90.3z"/>
	<path class="st0" d="M164,186.3c-0.5,0-48.7-1.9-73.1-35.1c-10-13.7-13.7-28-10.1-39.3c2-6.2,6.1-10.9,10.9-12.5
		c5.1-1.7,8.8,1.1,9.8,2.3c0.9,1.1,1.4,2.5,1.4,2.5l0.1,0.3l1.8-0.6l-0.1-0.3c-0.1-0.2-0.6-1.8-1.7-3.1c-1.8-2.2-6.4-4.7-11.9-2.9
		c-5.4,1.8-10,6.9-12.2,13.8c-3.8,11.9,0,26.9,10.4,41c24.9,33.8,74.1,35.9,74.6,35.9l0.3,0l0.1-1.9L164,186.3z"/>
	<path class="st0" d="M127.5,4.7l0.3-0.1l-0.4-1.9l-0.3,0.1c-0.4,0.1-37.7,8.6-60.5,39.9c-16.4,22.5-21.3,57.5,1.9,77.8
		c7.4,6.5,16.1,10,24.7,10c0,0,0,0,0,0c3,0,6-0.5,8.8-1.4c7.9-2.5,13.4-8.2,15.2-15.6c1.4-5.8-0.9-10.2-3.5-12.5
		c-2.2-1.9-4.9-2.6-7.2-1.7c-3.4,1.3-3.7,4-3.7,4.3l0,0.3l1.9,0.1l0-0.3c0-0.1,0.2-1.7,2.5-2.6c1.6-0.6,3.5-0.1,5.2,1.4
		c2.2,1.9,4,5.6,2.9,10.6c-1.6,6.7-6.7,11.9-13.9,14.2c-10.2,3.2-22,0.1-31.6-8.3c-22.3-19.6-17.5-53.3-1.6-75.2
		C90.5,13.2,127.1,4.8,127.5,4.7z"/>
	<path class="st0" d="M142.2,111.1c-3-13.1-11.2-23.1-22-26.7c-7.9-2.6-15.7-1.3-21.5,3.7c-4.5,3.9-5.3,8.8-4.5,12.1
		c0.7,2.9,2.5,5,4.8,5.6c3.6,0.9,5.5-1.2,5.5-1.3l0.2-0.2l-1.5-1.2l-0.2,0.2c0,0.1-1.2,1.3-3.6,0.7c-1.6-0.4-2.9-2-3.4-4.1
		c-0.6-2.8,0-6.9,3.9-10.2c5.3-4.5,12.4-5.7,19.6-3.3c10.1,3.4,17.9,12.8,20.7,25.3c6.6,29-17.2,53.4-42.9,61.8
		c-36,11.7-70.7-3.1-71.1-3.2l-0.3-0.1l-0.8,1.8l0.3,0.1c0.2,0.1,18.3,7.9,42.2,7.9c0,0,0,0,0,0c10.6,0,20.8-1.6,30.2-4.6
		C124.6,166.5,149.1,141.1,142.2,111.1z"/>
	<path class="st0" d="M207.1,94.7c-0.2-0.3-19.9-33.3-56.7-45.2C123.9,40.9,89.1,47,77,75.4c-5.3,12.4-4.5,25.3,2.1,34.5
		c4.4,6.2,10.9,9.7,17.9,9.7c0.6,0,1.1,0,1.7-0.1c5.9-0.5,9.5-4,10.8-7.2c1.2-2.7,0.9-5.5-0.6-7.3c-2.3-2.8-4.9-2.3-5.2-2.2
		l-0.3,0.1l0.5,1.9l0.3-0.1c0,0,1.7-0.4,3.3,1.5c1.1,1.3,1.2,3.3,0.3,5.3c-1.1,2.6-4.1,5.6-9.2,6c-6.9,0.5-13.4-2.7-17.8-8.8
		c-6.2-8.7-6.9-20.9-1.9-32.6c11.7-27.3,45.3-33.1,71-24.8c36.3,11.8,55.4,44,55.6,44.4l0.2,0.3l1.7-1L207.1,94.7z"/>
</g>
<g>
	<path class="st1" d="M292.8,95.3l-1.5-25.1c-0.3-3.9-0.4-7.1-0.4-12.5h-0.1c-0.7,5.3-1.2,8.4-2.1,11.7L281,95.3h-13.6l-6.6-25.2
		c-0.9-3.5-1.6-7-2.1-12.5h-0.1c0,5.5-0.1,8.9-0.3,12.9l-1.3,24.8h-16.1l6.1-62.2h19.6l6.1,24.6c0.9,3.5,1.5,6.8,2.1,11.8h0.1
		c0.5-4.7,1.1-7.8,2.4-12.7l6.3-23.8h18.9l5.7,62.2H292.8z"/>
	<path class="st1" d="M365.2,95.3l-1.5-25.1c-0.3-3.9-0.4-7.1-0.4-12.5h-0.1c-0.7,5.3-1.2,8.4-2.1,11.7l-7.6,25.9h-13.6l-6.6-25.2
		c-0.9-3.5-1.6-7-2.1-12.5h-0.1c0,5.5-0.1,8.9-0.3,12.9l-1.3,24.8h-16.1l6.1-62.2h19.6l6.1,24.6c0.9,3.5,1.5,6.8,2.1,11.8h0.1
		c0.5-4.7,1.1-7.8,2.4-12.7l6.3-23.8H375l5.7,62.2H365.2z"/>
</g>
<g>
	<g>
		<path class="st0" d="M261.2,135.3l-1.4-17.1c-0.1-1.5-0.2-3.8-0.2-3.9c-0.1,0.2-0.5,2.2-0.9,3.6l-5,17.4h-2.4l-4.6-16.6
			c-0.7-2.3-1.1-4-1.2-4.5c0,0.3-0.2,3.1-0.3,4.4l-1.3,16.6h-2.7l2-23.3h4.1l4.3,15.2c0.6,2.1,0.9,3.8,0.9,4c0-0.2,0.3-1.9,0.8-3.8
			l4.4-15.5h4.1l2,23.3H261.2z"/>
		<path class="st0" d="M280.9,136c-1.2-0.4-2-1.3-2.3-2.5c-1.6,1.6-3,2.3-4.9,2.3c-4.2,0-5.4-2.5-5.4-4.8c0-3.8,3.3-6.1,9-6.1
			c0.7,0,1.2,0,1.2,0v-1.2c0-1.5-0.1-2.1-0.5-2.7c-0.5-0.6-1.2-0.9-2.3-0.9c-1.9,0-4.3,1-5.4,2l-1.3-1.9c2.2-1.5,4.7-2.3,7.1-2.3
			c2.3,0,4,0.9,4.7,2.7c0.4,0.9,0.4,2.2,0.4,3.7l-0.1,5.6c-0.1,2.8,0.1,3.5,1.4,4.1L280.9,136z M277,126.6c-4.3,0-5.8,1.5-5.8,4
			c0,2,1,3.1,2.9,3.1c1.7,0,3.3-1.1,4.1-2.7l0.1-4.4C277.9,126.7,277.5,126.6,277,126.6z"/>
		<path class="st0" d="M293.6,120.4H290v10.9c0,1.9,0.5,2.5,2.2,2.5c0.7,0,1.2-0.1,1.7-0.3l0.4,1.7c-0.8,0.4-1.8,0.7-3,0.7
			c-0.9,0-1.6-0.2-2.2-0.5c-1.2-0.6-1.6-1.7-1.6-3.4v-11.6h-2.2v-2h2.2c0-1.6,0.3-4.3,0.3-4.3l2.8-0.6c0,0-0.3,2.7-0.3,4.9h4.3
			L293.6,120.4z"/>
		<path class="st0" d="M308.5,135.3v-11.7c0-1.3-0.2-2-0.6-2.5c-0.4-0.4-1.1-0.7-2-0.7c-1.6,0-3.5,1.1-4.9,2.9v12h-2.7v-20.9
			c0-2.2-0.4-3.5-0.4-3.5l2.7-0.5c0,0,0.4,1.4,0.4,4v3.9c0,1.1-0.1,2.3-0.1,2.3c1.5-1.4,3.5-2.7,5.6-2.7c2,0,3.9,1.1,4.4,2.7
			c0.2,0.7,0.3,1.2,0.3,2.4v12.1H308.5z"/>
		<path class="st0" d="M318.7,127.3v0.4c0,1.6,0.2,2.8,0.8,3.7c1,1.5,2.5,2.1,4.2,2.1c1.6,0,3-0.5,4.1-1.6l1,1.7
			c-1.5,1.4-3.5,2.1-5.7,2.1c-4.7,0-7.5-3.4-7.5-9c0-2.9,0.6-4.7,2-6.4c1.4-1.6,3-2.3,5.1-2.3c1.8,0,3.4,0.6,4.6,1.8
			c1.5,1.5,1.9,3.1,1.9,7.1v0.4H318.7z M325.7,121.5c-0.6-0.9-1.8-1.5-3.1-1.5c-2.4,0-3.8,1.8-3.9,5.3h7.8
			C326.5,123.4,326.2,122.3,325.7,121.5z"/>
		<path class="st0" d="M352.9,135.3v-12.5c0-1.6-0.7-2.5-2.2-2.5c-1.5,0-2.7,1-4.5,2.6v12.4h-2.7v-12c0-1-0.1-1.7-0.5-2.2
			c-0.4-0.5-1-0.7-1.7-0.7c-1.3,0-2.5,0.6-4.3,2.2v12.7h-2.6v-13.1c0-2.4-0.6-3.6-0.6-3.6l2.6-0.6c0,0,0.6,1.3,0.6,2.5
			c1.1-1.3,3.2-2.5,4.9-2.5c1.7,0,3.3,1,3.9,2.8c1.6-1.7,3.7-2.8,5.4-2.8c2.5,0,4.3,1.9,4.3,4.6v12.8H352.9z"/>
		<path class="st0" d="M373.4,136c-1.2-0.4-2-1.3-2.3-2.5c-1.6,1.6-3,2.3-4.9,2.3c-4.2,0-5.4-2.5-5.4-4.8c0-3.8,3.3-6.1,9-6.1
			c0.7,0,1.2,0,1.2,0v-1.2c0-1.5-0.1-2.1-0.5-2.7c-0.5-0.6-1.2-0.9-2.3-0.9c-1.9,0-4.3,1-5.4,2l-1.3-1.9c2.2-1.5,4.7-2.3,7.1-2.3
			c2.3,0,4,0.9,4.7,2.7c0.4,0.9,0.4,2.2,0.4,3.7l-0.1,5.6c-0.1,2.8,0.1,3.5,1.4,4.1L373.4,136z M369.5,126.6c-4.3,0-5.8,1.5-5.8,4
			c0,2,1,3.1,2.9,3.1c1.7,0,3.3-1.1,4.1-2.7l0.1-4.4C370.4,126.7,370,126.6,369.5,126.6z"/>
		<path class="st0" d="M386.1,120.4h-3.5v10.9c0,1.9,0.5,2.5,2.2,2.5c0.7,0,1.2-0.1,1.7-0.3l0.4,1.7c-0.8,0.4-1.8,0.7-3,0.7
			c-0.9,0-1.6-0.2-2.2-0.5c-1.2-0.6-1.6-1.7-1.6-3.4v-11.6h-2.2v-2h2.2c0-1.6,0.3-4.3,0.3-4.3l2.8-0.6c0,0-0.3,2.7-0.3,4.9h4.3
			L386.1,120.4z"/>
		<path class="st0" d="M392.4,115.2c-1.2,0-2.1-0.9-2.1-2c0-1.2,0.9-2.1,2.1-2.1c1.2,0,2.1,0.9,2.1,2.1
			C394.5,114.3,393.6,115.2,392.4,115.2z M391,135.3v-16.9l2.8-0.4v17.3H391z"/>
		<path class="st0" d="M405.6,135.7c-2.4,0-4.2-0.8-5.4-2.5c-1.1-1.6-1.6-3.5-1.6-6c0-3.7,1.1-5.7,2.5-7.2c1.3-1.3,2.8-2,4.6-2
			c2.1,0,3.4,0.8,4.6,1.8l-1.5,1.8c-1.2-1-1.9-1.4-3.2-1.4c-1.3,0-2.6,0.7-3.2,1.9c-0.6,1.2-1,3.1-1,5.5c0,3.8,1.5,5.9,4.2,5.9
			c1.4,0,2.7-0.6,3.6-1.8l1.5,1.7C409.2,135,407.7,135.7,405.6,135.7z"/>
		<path class="st0" d="M420.2,135.8c-2.1,0-4.5-0.6-6.2-1.7l1-2c1.7,1.1,3.5,1.6,5.4,1.6c2.1,0,3.4-1.1,3.4-2.9
			c0-1.5-0.9-2.4-2.8-2.8l-2.1-0.4c-2.8-0.6-4.3-2.3-4.3-4.7c0-3.1,2.5-5.2,6-5.2c1.8,0,3.7,0.5,5.2,1.4l-1,2
			c-1.5-0.7-2.8-1.2-4.3-1.2c-1.9,0-3.2,1.1-3.2,2.8c0,1.3,0.6,2.1,2.4,2.5l2.2,0.5c3.1,0.6,4.5,2.2,4.5,4.7
			C426.6,133.6,424,135.8,420.2,135.8z"/>
	</g>
	<g>
		<path class="st0" d="M261,174.5l-1.4-17.1c-0.1-1.5-0.2-3.8-0.2-3.9c-0.1,0.2-0.5,2.2-0.9,3.6l-5,17.4h-2.4l-4.6-16.6
			c-0.7-2.3-1.1-4-1.2-4.5c0,0.3-0.2,3.1-0.3,4.4l-1.3,16.6h-2.7l2-23.3h4.1l4.3,15.2c0.6,2.1,0.9,3.8,0.9,4c0-0.2,0.3-1.9,0.8-3.8
			l4.4-15.5h4.1l2,23.3H261z"/>
		<path class="st0" d="M280.5,175.2c-1.1-0.9-1.6-1.6-1.8-2.7c-1.3,1.7-3.1,2.6-5.4,2.6c-2.1,0-3.7-0.9-4.5-2.4
			c-0.3-0.6-0.4-1.5-0.4-2.5v-12.4l2.6-0.5v12.2c0,1.6,0.2,2.3,1,2.9c0.5,0.4,1.3,0.6,2.1,0.6c1.7,0,3.4-1.2,4.3-3.1v-12l2.6-0.4
			v12.3c0,2.1,0.3,3,1.2,3.8L280.5,175.2z M271.2,155.2c-1,0-1.8-0.8-1.8-1.8c0-1,0.8-1.7,1.7-1.7c1,0,1.8,0.8,1.8,1.7
			C272.9,154.4,272.2,155.2,271.2,155.2z M278.2,155.2c-1,0-1.8-0.8-1.8-1.8c0-1,0.8-1.7,1.7-1.7c1,0,1.8,0.8,1.8,1.7
			C280,154.4,279.2,155.2,278.2,155.2z"/>
		<path class="st0" d="M296.8,174.5v-11.5c0-1.8-0.1-2.2-0.6-2.8c-0.4-0.4-1.1-0.7-1.9-0.7c-1.4,0-3.5,1.1-4.7,2.4v12.6H287v-13.1
			c0-2.4-0.6-3.6-0.6-3.6l2.6-0.7c0,0,0.6,1.3,0.6,2.7c1.8-1.8,3.5-2.6,5.3-2.6c1.8,0,3.5,1,4.1,2.5c0.3,0.6,0.4,1.3,0.4,2v12.9
			H296.8z"/>
		<path class="st0" d="M309.8,175c-2.1,0-4.5-0.6-6.2-1.7l1-2c1.7,1.1,3.5,1.6,5.4,1.6c2.1,0,3.4-1.1,3.4-2.9c0-1.5-0.9-2.4-2.8-2.8
			l-2.1-0.4c-2.8-0.6-4.3-2.3-4.3-4.7c0-3.1,2.5-5.2,6-5.2c1.8,0,3.7,0.5,5.2,1.4l-1,2c-1.5-0.7-2.8-1.2-4.3-1.2
			c-1.9,0-3.2,1.1-3.2,2.8c0,1.3,0.6,2.1,2.4,2.5l2.2,0.5c3.1,0.6,4.5,2.2,4.5,4.7C316.2,172.8,313.6,175,309.8,175z"/>
		<path class="st0" d="M327.8,159.6h-3.5v10.9c0,1.9,0.5,2.5,2.2,2.5c0.7,0,1.2-0.1,1.7-0.3l0.4,1.7c-0.8,0.4-1.8,0.7-3,0.7
			c-0.9,0-1.6-0.2-2.2-0.5c-1.2-0.6-1.6-1.7-1.6-3.4v-11.6h-2.2v-2h2.2c0-1.6,0.3-4.3,0.3-4.3l2.8-0.6c0,0-0.3,2.7-0.3,4.9h4.3
			L327.8,159.6z"/>
		<path class="st0" d="M333.9,166.5v0.4c0,1.6,0.2,2.8,0.8,3.7c1,1.5,2.5,2.1,4.2,2.1c1.6,0,3-0.5,4.1-1.6l1,1.7
			c-1.5,1.4-3.5,2.1-5.7,2.1c-4.7,0-7.5-3.4-7.5-9c0-2.9,0.6-4.7,2-6.4c1.4-1.6,3-2.3,5.1-2.3c1.8,0,3.4,0.6,4.6,1.8
			c1.5,1.5,1.9,3.1,1.9,7.1v0.4H333.9z M340.9,160.7c-0.6-0.9-1.8-1.5-3.1-1.5c-2.4,0-3.8,1.8-3.9,5.3h7.8
			C341.6,162.7,341.4,161.5,340.9,160.7z"/>
		<path class="st0" d="M356.8,160.1c-0.2-0.1-0.5-0.1-0.7-0.1c-1,0-2,0.4-2.8,1.2c-0.8,0.8-1,1.3-1,2.7v10.6h-2.7v-13.1
			c0-2.5-0.6-3.6-0.6-3.6l2.7-0.7c0,0,0.6,1.3,0.5,2.8c1.2-1.7,3-2.8,4.8-2.8c0.4,0,0.9,0.2,0.9,0.2L356.8,160.1z"/>
	</g>
</g>
<g>
	<path class="st2" d="M247.1,206c-1.6,0-3.2-0.7-4.4-2c-1.3-1.4-1.8-3.5-1.8-5.7c0-4.4,2.7-7.7,6.3-7.7c1.4,0,2.7,0.4,3.8,1.2
		l-1,1.2c-0.9-0.7-1.7-0.9-2.8-0.9c-1.7,0-3,0.9-3.7,2.6c-0.4,1-0.6,2.2-0.6,4c0,1.4,0.1,2.3,0.5,3.2c0.8,1.9,2.3,2.8,4,2.8
		c1.1,0,2-0.3,2.9-1l1,1.2C250.1,205.6,248.6,206,247.1,206z"/>
	<path class="st2" d="M255.4,206c-0.5,0-1-0.2-1.3-0.5c-0.3-0.3-0.5-0.8-0.5-1.5v-11.5c0-1.4-0.3-2.2-0.3-2.2l1.7-0.3
		c0,0,0.3,0.9,0.3,2.6v11.1c0,0.8,0.1,1.1,0.6,1.1c0.1,0,0.2,0,0.2,0l0.3,1.1C256.1,206,255.9,206,255.4,206z"/>
	<path class="st2" d="M266.6,206.3c-0.7-0.6-1-1-1.2-1.7c-0.8,1.1-2,1.7-3.4,1.7c-1.4,0-2.4-0.6-2.9-1.5c-0.2-0.4-0.3-1-0.3-1.6v-8
		l1.7-0.3v7.8c0,1,0.2,1.5,0.7,1.8c0.3,0.2,0.9,0.4,1.3,0.4c1.1,0,2.2-0.8,2.8-2v-7.7l1.7-0.3v7.9c0,1.4,0.2,1.9,0.7,2.4
		L266.6,206.3z"/>
	<path class="st2" d="M274,206.1c-1.4,0-2.9-0.4-4-1.1l0.7-1.3c1.1,0.7,2.2,1,3.4,1c1.3,0,2.2-0.7,2.2-1.9c0-1-0.5-1.5-1.8-1.8
		l-1.4-0.3c-1.8-0.4-2.7-1.5-2.7-3c0-2,1.6-3.3,3.9-3.3c1.1,0,2.4,0.3,3.3,0.9l-0.6,1.3c-1-0.5-1.8-0.8-2.7-0.8c-1.2,0-2,0.7-2,1.8
		c0,0.8,0.4,1.3,1.6,1.6l1.4,0.3c2,0.4,2.9,1.4,2.9,3C278.1,204.7,276.5,206.1,274,206.1z"/>
	<path class="st2" d="M285.1,196.2h-2.3v7c0,1.2,0.3,1.6,1.4,1.6c0.5,0,0.8-0.1,1.1-0.2l0.2,1.1c-0.5,0.3-1.2,0.4-1.9,0.4
		c-0.6,0-1-0.1-1.4-0.3c-0.8-0.4-1-1.1-1-2.2v-7.4h-1.4V195h1.4c0-1,0.2-2.7,0.2-2.7l1.8-0.4c0,0-0.2,1.7-0.2,3.1h2.7L285.1,196.2z"
		/>
	<path class="st2" d="M288.9,200.7v0.3c0,1,0.1,1.8,0.5,2.4c0.6,0.9,1.6,1.3,2.7,1.3c1,0,1.9-0.3,2.7-1l0.7,1.1
		c-1,0.9-2.3,1.3-3.7,1.3c-3,0-4.8-2.2-4.8-5.8c0-1.8,0.4-3,1.3-4.1c0.9-1,1.9-1.5,3.2-1.5c1.2,0,2.2,0.4,2.9,1.2
		c0.9,1,1.2,2,1.2,4.6v0.2H288.9z M293.3,197c-0.4-0.6-1.1-1-2-1c-1.5,0-2.4,1.1-2.5,3.4h5C293.8,198.2,293.7,197.5,293.3,197z"/>
	<path class="st2" d="M303.5,196.6c-0.1,0-0.3-0.1-0.5-0.1c-0.7,0-1.3,0.3-1.8,0.8c-0.5,0.5-0.6,0.8-0.6,1.7v6.8h-1.7v-8.4
		c0-1.6-0.4-2.3-0.4-2.3l1.7-0.5c0,0,0.4,0.8,0.3,1.8c0.8-1.1,1.9-1.8,3-1.8c0.3,0,0.6,0.1,0.6,0.1L303.5,196.6z"/>
	<path class="st2" d="M314.3,206.1c-3,0-4.7-2.2-4.7-5.8c0-3.5,1.8-5.7,4.6-5.7c1.8,0,3,0.8,3.7,1.9c0.7,1,1,2.3,1,4
		C318.9,204.2,317,206.1,314.3,206.1z M316.5,197.4c-0.5-1-1.4-1.4-2.3-1.4c-1,0-1.9,0.5-2.2,1.2c-0.3,0.7-0.5,1.5-0.5,2.8
		c0,1.5,0.3,2.9,0.7,3.5c0.4,0.7,1.3,1.1,2.2,1.1c1.1,0,2-0.6,2.4-1.6c0.2-0.7,0.3-1.3,0.3-2.4C317,199.2,316.8,198.1,316.5,197.4z"
		/>
	<path class="st2" d="M326.7,191.9c-0.4-0.2-1-0.5-1.6-0.5c-1,0-1.5,0.7-1.5,1.9v1.7h3l-0.5,1.3h-2.5v9.6h-1.8v-9.6h-1V195h1v-1.7
		c0-1.6,0.7-2.3,1.2-2.7c0.5-0.4,1.1-0.6,1.9-0.6c0.9,0,1.8,0.2,2.4,0.6L326.7,191.9z"/>
	<path class="st2" d="M333.5,205.8v-14.9h8.2l-0.2,1.5h-6.1v4.9h5.1v1.5h-5.1v5.5h6.6v1.5H333.5z"/>
	<path class="st2" d="M351.3,205.8l-2.9-4.6l-2.9,4.6h-2l4.1-6l-3.4-4.8h2.1l2.2,3.6l2.1-3.6h2l-3.2,4.8l4.2,6H351.3z"/>
	<path class="st2" d="M358.8,206c-1.5,0-2.7-0.5-3.5-1.6c-0.7-1-1-2.2-1-3.9c0-2.4,0.7-3.7,1.6-4.6c0.8-0.9,1.8-1.3,2.9-1.3
		c1.4,0,2.2,0.5,3,1.2l-0.9,1.2c-0.8-0.6-1.2-0.9-2.1-0.9c-0.8,0-1.7,0.5-2,1.2c-0.4,0.8-0.6,2-0.6,3.6c0,2.4,0.9,3.8,2.7,3.8
		c0.9,0,1.7-0.4,2.3-1.2l0.9,1.1C361.1,205.6,360.1,206,358.8,206z"/>
	<path class="st2" d="M366,200.7v0.3c0,1,0.1,1.8,0.5,2.4c0.6,0.9,1.6,1.3,2.7,1.3c1,0,1.9-0.3,2.7-1l0.7,1.1
		c-1,0.9-2.3,1.3-3.7,1.3c-3,0-4.8-2.2-4.8-5.8c0-1.8,0.4-3,1.3-4.1c0.9-1,1.9-1.5,3.2-1.5c1.2,0,2.2,0.4,2.9,1.2
		c0.9,1,1.2,2,1.2,4.6v0.2H366z M370.4,197c-0.4-0.6-1.1-1-2-1c-1.5,0-2.4,1.1-2.5,3.4h5C370.9,198.2,370.8,197.5,370.4,197z"/>
	<path class="st2" d="M377.7,206c-0.5,0-1-0.2-1.3-0.5c-0.3-0.3-0.5-0.8-0.5-1.5v-11.5c0-1.4-0.3-2.2-0.3-2.2l1.7-0.3
		c0,0,0.3,0.9,0.3,2.6v11.1c0,0.8,0.1,1.1,0.6,1.1c0.1,0,0.2,0,0.2,0l0.3,1.1C378.4,206,378.2,206,377.7,206z"/>
	<path class="st2" d="M382.9,206c-0.5,0-1-0.2-1.3-0.5c-0.3-0.3-0.5-0.8-0.5-1.5v-11.5c0-1.4-0.3-2.2-0.3-2.2l1.7-0.3
		c0,0,0.3,0.9,0.3,2.6v11.1c0,0.8,0.1,1.1,0.6,1.1c0.1,0,0.2,0,0.2,0l0.3,1.1C383.5,206,383.3,206,382.9,206z"/>
	<path class="st2" d="M387.6,200.7v0.3c0,1,0.1,1.8,0.5,2.4c0.6,0.9,1.6,1.3,2.7,1.3c1,0,1.9-0.3,2.7-1l0.7,1.1
		c-1,0.9-2.3,1.3-3.7,1.3c-3,0-4.8-2.2-4.8-5.8c0-1.8,0.4-3,1.3-4.1c0.9-1,1.9-1.5,3.2-1.5c1.2,0,2.2,0.4,2.9,1.2
		c0.9,1,1.2,2,1.2,4.6v0.2H387.6z M392.1,197c-0.4-0.6-1.1-1-2-1c-1.5,0-2.4,1.1-2.5,3.4h5C392.6,198.2,392.4,197.5,392.1,197z"/>
	<path class="st2" d="M403.8,205.8v-7.3c0-1.2-0.1-1.4-0.4-1.8c-0.2-0.3-0.7-0.5-1.2-0.5c-0.9,0-2.2,0.7-3,1.5v8.1h-1.7v-8.4
		c0-1.5-0.4-2.3-0.4-2.3l1.7-0.5c0,0,0.4,0.8,0.4,1.7c1.1-1.1,2.3-1.7,3.4-1.7c1.2,0,2.2,0.6,2.7,1.6c0.2,0.4,0.3,0.8,0.3,1.3v8.2
		H403.8z"/>
	<path class="st2" d="M412.6,206c-1.5,0-2.7-0.5-3.5-1.6c-0.7-1-1-2.2-1-3.9c0-2.4,0.7-3.7,1.6-4.6c0.8-0.9,1.8-1.3,2.9-1.3
		c1.4,0,2.2,0.5,3,1.2l-0.9,1.2c-0.8-0.6-1.2-0.9-2.1-0.9c-0.8,0-1.7,0.5-2,1.2c-0.4,0.8-0.6,2-0.6,3.6c0,2.4,0.9,3.8,2.7,3.8
		c0.9,0,1.7-0.4,2.3-1.2l0.9,1.1C414.9,205.6,414,206,412.6,206z"/>
	<path class="st2" d="M419.8,200.7v0.3c0,1,0.1,1.8,0.5,2.4c0.6,0.9,1.6,1.3,2.7,1.3c1,0,1.9-0.3,2.7-1l0.7,1.1
		c-1,0.9-2.3,1.3-3.7,1.3c-3,0-4.8-2.2-4.8-5.8c0-1.8,0.4-3,1.3-4.1c0.9-1,1.9-1.5,3.2-1.5c1.2,0,2.2,0.4,2.9,1.2
		c0.9,1,1.2,2,1.2,4.6v0.2H419.8z M424.2,197c-0.4-0.6-1.1-1-2-1c-1.5,0-2.4,1.1-2.5,3.4h5C424.7,198.2,424.6,197.5,424.2,197z"/>
</g>
<path class="st1" d="M204.9,119.4l-0.2,0.2c-0.1,0.1-14.5,13.3-35.3,21.4c0.4-3.3,0.5-6.5,0.5-9.7c0-27.9-16.6-59-47.3-61.8
	c-5.2-0.5-10.2-0.1-14.9,1.2c-7-5.8-16.6-9.7-27.9-11.4c-24.3-3.7-46.9,6.2-61.6,15.3c-2.1-13.8-1.2-23.8-1.2-23.9l0-0.3L15,50.2
	l0,0.3c0,0.1-1,10.7,1.4,25.2c-9.2,5.9-14.6,10.9-14.7,11l-0.2,0.2l1.3,1.4L3,88.1c0.1,0,5.2-4.8,13.7-10.3
	c2.9,16.3,8.8,30.6,17.5,42.6C46.9,137.8,67,149,85.5,149c8.3,0,16.2-2.2,23.4-6.4l0,0c5.6,2.7,12,4.7,19,5.8
	c12.4,1.9,25.6,0.4,39.1-4.4c-4.5,31.5-23.9,53.7-24.1,53.9l-0.2,0.2l1.4,1.3l0.2-0.2c0.2-0.2,20.4-23.2,24.7-56
	c21.8-8.3,36.8-22.1,36.9-22.2l0.2-0.2L204.9,119.4z M102.5,107.9c-0.9,1.4-2.8,2.1-5,1.9c-1.6-0.1-3.3-0.8-4.7-1.9
	c2.6-3.7,6.5-4.2,7.8-4.1c0.6,0.1,1.3,0.2,1.9,0.4c0.2,0.1,0.3,0.2,0.5,0.3c0.1,0.1,0.2,0.2,0.2,0.3
	C103.4,105.9,103.2,106.9,102.5,107.9z M116.5,95.9c-0.3,1-0.6,1.8-0.9,2.5c-2.4,4.8-7,5.5-8.5,5.3c-1.3-0.1-2.6-0.7-2.8-0.8
	c-0.4-0.2-1.6-1-1.8-3.2c-0.1-1.7,1-3.4,2.9-4.5c2.5-1.5,6.6-2.1,10.9,0.5C116.3,95.8,116.4,95.9,116.5,95.9
	C116.5,95.9,116.5,95.9,116.5,95.9z M116.9,93.9c-4.9-2.8-9.7-2-12.6-0.3c-2.5,1.5-4,3.9-3.8,6.3c0,0.8,0.2,1.5,0.5,2.1
	c-0.1,0-0.1,0-0.2,0c-2.8-0.3-6.8,1.1-9.4,4.7c-1-1-1.8-2.3-2.3-3.7c-2.7-6.4-1.6-13.6,2.9-19.7c3.6-4.9,8.9-8.5,15.3-10.5
	c3.1,2.7,5.5,5.7,7.2,9C116.5,85.8,117.4,90.1,116.9,93.9z M90.4,82.2c-4.9,6.7-6,14.5-3.1,21.6c0.7,1.8,1.8,3.4,3.1,4.6
	c-2.5,5.1-2.1,11.9,1.2,18.3c3,5.9,8.3,11,15.3,14.8c-25.3,14.2-55.4-0.8-71-22.3c-8.7-12-14.5-26.3-17.3-42.6
	c14.6-9.1,36.9-19.1,61-15.4c10.4,1.6,19.3,5.1,26,10.2C99.2,73.6,94,77.3,90.4,82.2z M91.9,109.7c1.7,1.2,3.6,2,5.5,2.1
	c2.9,0.3,5.5-0.8,6.8-2.8c0.8-1.2,1.1-2.4,1-3.6c0.6,0.2,1.1,0.3,1.6,0.3c0.2,0,0.4,0,0.7,0c3.3,0,7.6-2,9.8-6.4
	c0.3-0.6,0.6-1.3,0.8-2.2c4.8,3.8,7.4,9.5,7.3,16.3c-0.1,10.3-6.3,20.4-16.7,27c-7.1-3.7-12.5-8.7-15.5-14.6
	C90.3,120.2,89.8,114.2,91.9,109.7z M127.4,113.4c0-7.6-3.1-14.3-8.7-18.3c0.8-4.4-0.1-9.4-2.5-14.1c-1.6-3.1-3.9-6-6.7-8.7
	c4.1-1,8.4-1.2,12.9-0.8c29.6,2.7,45.5,32.9,45.5,59.9c0,3.4-0.2,7-0.6,10.5c-13.6,5-26.8,6.5-39.1,4.6c-6.4-1-12.2-2.7-17.4-5.1
	C121.1,134.4,127.3,124,127.4,113.4z"/>
</svg>
